<?xml version="1.0" ?><svg height="24px" version="1.1" viewBox="0 0 24 24" width="24px" xmlns="http://www.w3.org/2000/svg" xmlns:sketch="http://www.bohemiancoding.com/sketch/ns" xmlns:xlink="http://www.w3.org/1999/xlink"><title/><desc/><defs/><g fill="none" fill-rule="evenodd" id="miu" stroke="none" stroke-width="1"><g id="Artboard-1" transform="translate(-467.000000, -587.000000)"><g id="slice" transform="translate(215.000000, 119.000000)"/><path d="M479.499985,608 L479.499985,605.588389 C484.437471,605.354451 484.999972,601.650297 484.999972,600.369231 L484.999972,597.661538 C484.999972,597.661538 485.012618,597 484.504074,597 C483.995531,597 483.995531,597.661539 483.995531,597.661539 L483.995531,600.307692 C483.995531,601.630769 483.395532,604.617919 478.999986,604.61792 C474.60444,604.61792 474.002195,601.630769 474.002195,600.307692 L474.002195,597.502026 C474.002195,597.502026 473.999998,597 473.499999,597 C473,597 473,597.502026 473,597.502026 L473,600.369231 C473,601.650297 473.562501,605.354452 478.499987,605.588389 L478.499987,608 L474.899996,608 L474.899996,609 L482.899977,609 L482.899977,608 L479.499985,608 Z M479,589 C476,589.000001 476,591.6 476,591.6 L476,599.4 C476,599.4 476,601.999999 479,602 C482,602.000001 482,599.4 482,599.4 L482,591.6 C482,591.6 482,588.999999 479,589 Z" fill="#000000" id="device-microphone-sound-recoder-glyph"/></g></g></svg>